<svg width="173" height="32" viewBox="0 0 173 32" fill="none" xmlns="http://www.w3.org/2000/svg">
<g id="Group 2">
<g id="Group 2_2">
<path id="Path 2" d="M18.0566 18.0032C18.0566 18.0032 18.0566 17.4521 18.0566 17.2338C18.0566 17.0156 18.0566 5.74461 18.0566 5.74461L5.9375 13.1134L21.3935 24.7483V0L0 12.9254L21.3935 28.4837H24.8076V2.9223H40V0H26.25" transform="translate(1 2.51632)" stroke="#ED5339" stroke-width="0.663552"/>
<path id="Oval" fill-rule="evenodd" clip-rule="evenodd" d="M1.08108 2.12962C1.67815 2.12962 2.16216 1.65289 2.16216 1.06481C2.16216 0.476732 1.67815 0 1.08108 0C0.484016 0 0 0.476732 0 1.06481C0 1.65289 0.484016 2.12962 1.08108 2.12962Z" transform="translate(18.027 19.0209)" fill="#FF422C"/>
<path id="Triangle 2" fill-rule="evenodd" clip-rule="evenodd" d="M1.76821 0L3.53642 2.95041H0L1.76821 0Z" transform="translate(28.6981 0.0322342) scale(-1 1)" fill="#ED5339"/>
</g>
<g id="Group 3">
<path id="DUBSTECH" d="M2.37656 27V6.525H8.15625C9.9375 6.525 11.5125 6.91875 12.8812 7.70625C14.25 8.49375 15.3047 9.61406 16.0453 11.0672C16.7953 12.5203 17.175 14.1891 17.1844 16.0734V17.3813C17.1844 19.3125 16.8094 21.0047 16.0594 22.4578C15.3188 23.9109 14.2547 25.0266 12.8672 25.8047C11.4891 26.5828 9.88125 26.9812 8.04375 27H2.37656ZM5.07656 8.74688V24.7922H7.91719C9.99844 24.7922 11.6156 24.1453 12.7687 22.8516C13.9312 21.5578 14.5125 19.7156 14.5125 17.325V16.1297C14.5125 13.8047 13.9641 12 12.8672 10.7156C11.7797 9.42188 10.2328 8.76563 8.22656 8.74688H5.07656ZM35.6906 6.525V20.4469C35.6812 22.3781 35.0719 23.9578 33.8625 25.1859C32.6625 26.4141 31.0312 27.1031 28.9687 27.2531L28.2516 27.2812C26.0109 27.2812 24.225 26.6766 22.8937 25.4672C21.5625 24.2578 20.8875 22.5937 20.8687 20.475V6.525H23.5406V20.3906C23.5406 21.8719 23.9484 23.025 24.7641 23.85C25.5797 24.6656 26.7422 25.0734 28.2516 25.0734C29.7797 25.0734 30.9469 24.6656 31.7531 23.85C32.5687 23.0344 32.9766 21.8859 32.9766 20.4047V6.525H35.6906ZM39.9516 27V6.525H46.6453C48.8672 6.525 50.5359 6.98437 51.6516 7.90313C52.7766 8.82188 53.3391 10.1813 53.3391 11.9813C53.3391 12.9375 53.0672 13.7859 52.5234 14.5266C51.9797 15.2578 51.2391 15.825 50.3016 16.2281C51.4078 16.5375 52.2797 17.1281 52.9172 18C53.5641 18.8625 53.8875 19.8938 53.8875 21.0938C53.8875 22.9312 53.2922 24.375 52.1016 25.425C50.9109 26.475 49.2281 27 47.0531 27H39.9516ZM42.6516 17.4234V24.7922H47.1094C48.3656 24.7922 49.3547 24.4688 50.0766 23.8219C50.8078 23.1656 51.1734 22.2656 51.1734 21.1219C51.1734 18.6563 49.8328 17.4234 47.1516 17.4234H42.6516ZM42.6516 15.2578H46.7297C47.9109 15.2578 48.8531 14.9625 49.5562 14.3719C50.2687 13.7813 50.625 12.9797 50.625 11.9672C50.625 10.8422 50.2969 10.0266 49.6406 9.52031C48.9844 9.00469 47.9859 8.74688 46.6453 8.74688H42.6516V15.2578ZM63.9281 17.8734C61.6125 17.2078 59.925 16.3922 58.8656 15.4266C57.8156 14.4516 57.2906 13.2516 57.2906 11.8266C57.2906 10.2141 57.9328 8.88281 59.2172 7.83281C60.5109 6.77344 62.1891 6.24375 64.2516 6.24375C65.6578 6.24375 66.9094 6.51563 68.0062 7.05938C69.1125 7.60312 69.9656 8.35313 70.5656 9.30938C71.175 10.2656 71.4797 11.3109 71.4797 12.4453H68.7656C68.7656 11.2078 68.3719 10.2375 67.5844 9.53438C66.7969 8.82188 65.6859 8.46563 64.2516 8.46563C62.9203 8.46563 61.8797 8.76094 61.1297 9.35156C60.3891 9.93281 60.0187 10.7438 60.0187 11.7844C60.0187 12.6188 60.3703 13.3266 61.0734 13.9078C61.7859 14.4797 62.9906 15.0047 64.6875 15.4828C66.3937 15.9609 67.725 16.4906 68.6812 17.0719C69.6469 17.6438 70.3594 18.3141 70.8187 19.0828C71.2875 19.8516 71.5219 20.7563 71.5219 21.7969C71.5219 23.4563 70.875 24.7875 69.5812 25.7906C68.2875 26.7844 66.5578 27.2812 64.3922 27.2812C62.9859 27.2812 61.6734 27.0141 60.4547 26.4797C59.2359 25.9359 58.2937 25.1953 57.6281 24.2578C56.9719 23.3203 56.6437 22.2562 56.6437 21.0656H59.3578C59.3578 22.3031 59.8125 23.2828 60.7219 24.0047C61.6406 24.7172 62.8641 25.0734 64.3922 25.0734C65.8172 25.0734 66.9094 24.7828 67.6687 24.2016C68.4281 23.6203 68.8078 22.8281 68.8078 21.825C68.8078 20.8219 68.4562 20.0484 67.7531 19.5047C67.05 18.9516 65.775 18.4078 63.9281 17.8734ZM89.0578 7.28438H81.6047V27H80.8453V7.28438H73.3922V6.525H89.0578V7.28438ZM103.669 16.8469H93.4031V26.2406H105.103V27H92.6438V6.525H105.103V7.28438H93.4031V16.0875H103.669V16.8469ZM122.963 20.7281C122.766 22.8375 122.039 24.4594 120.783 25.5938C119.527 26.7188 117.82 27.2812 115.664 27.2812C114.211 27.2812 112.922 26.9156 111.797 26.1844C110.681 25.4438 109.814 24.3984 109.195 23.0484C108.577 21.6891 108.263 20.1375 108.253 18.3938V15.2297C108.253 13.4859 108.558 11.9297 109.167 10.5609C109.777 9.18281 110.644 8.11875 111.769 7.36875C112.903 6.61875 114.202 6.24375 115.664 6.24375C117.802 6.24375 119.503 6.80625 120.769 7.93125C122.034 9.05625 122.766 10.6687 122.963 12.7688H122.203C121.988 10.8844 121.331 9.45469 120.234 8.47969C119.138 7.49531 117.614 7.00313 115.664 7.00313C113.677 7.00313 112.069 7.75313 110.841 9.25313C109.622 10.7531 109.013 12.7641 109.013 15.2859V18.2953C109.013 19.9078 109.284 21.3375 109.828 22.5844C110.372 23.8219 111.15 24.7875 112.163 25.4813C113.184 26.175 114.352 26.5219 115.664 26.5219C117.623 26.5219 119.152 26.0391 120.248 25.0734C121.355 24.1078 122.006 22.6594 122.203 20.7281H122.963ZM142.312 27H141.553V16.8469H128.475V27H127.716V6.525H128.475V16.0875H141.553V6.525H142.312V27Z" transform="translate(30 4)" fill="white"/>
</g>
</g>
</svg>
